<svg fill-rule="evenodd" stroke-linejoin="round" stroke-miterlimit="2" viewBox="0 0 171 31" xmlns="http://www.w3.org/2000/svg" xmlns:xlink="http://www.w3.org/1999/xlink"><clipPath id="a"><path d="m800 800.998h-800v-800l800 .002v800z"/></clipPath><clipPath id="b"><path d="m800 800.998h-800v-800l800 .002v800z"/></clipPath><clipPath id="c"><path d="m800 800.998h-800v-800l800 .002v800z"/></clipPath><clipPath id="d"><path d="m800 800.998h-800v-800l800 .002v800z"/></clipPath><g transform="matrix(.02316134491 0 0 .02316134491 2.2442677888 1.80890090445)"><circle cx="598.766" cy="599.166" fill="#fff" r="575.666"/><g clip-path="url(#a)" fill-rule="nonzero" transform="matrix(5.62664 -.004022 .004022 5.62664 -3529.12 -3178.64)"><path d="m733.08 581.258c117.966 145.83 0 184.844 0 184.844s-117.965-39.013 0-184.844z" fill="#8cc972" transform="translate(.276959 -1.59456)"/><path d="m733.08 581.258v184.844s117.966-39.013 0-184.844z" fill="#2cb563" transform="translate(.295547 -1.61184)"/></g><g clip-path="url(#b)" fill="#e5c614" fill-rule="nonzero" transform="matrix(5.86538 .596616 -.596616 5.86538 -1356.39 -2946.39)"><path d="m432.503 530.484c52.278 117.108-32.526 122.124-32.526 122.124s-71.073-46.533 32.526-122.124z"/><path d="m432.503 530.484-32.526 122.124s84.804-5.016 32.526-122.124z"/></g><circle cx="598.766" cy="599.166" fill="#313131" r="575.666"/><g fill-rule="nonzero"><g clip-path="url(#c)" transform="matrix(5.62664 -.004022 .004022 5.62664 -3529.12 -3178.64)"><path d="m733.08 581.258c117.966 145.83 0 184.844 0 184.844s-117.965-39.013 0-184.844z" fill="#8cc972" transform="translate(.276959 -1.59456)"/><path d="m733.08 581.258v184.844s117.966-39.013 0-184.844z" fill="#2cb563" transform="translate(.295547 -1.61184)"/></g><g clip-path="url(#d)" fill="#e5c614" transform="matrix(5.86538 .596616 -.596616 5.86538 -1356.39 -2946.39)"><path d="m432.503 530.484c52.278 117.108-32.526 122.124-32.526 122.124s-71.073-46.533 32.526-122.124z"/><path d="m432.503 530.484-32.526 122.124s84.804-5.016 32.526-122.124z"/></g><path d="m669.208 910.823 38.334-168.517a14.83 14.83 0 0 1 17.753-11.159c7.983 1.825 12.977 9.77 11.16 17.753l-38.485 168.523c-1.513 6.73-7.48 11.533-14.378 11.564-1.108.112-2.223.112-3.338 0-7.977-1.825-12.97-9.776-11.14-17.76.03-.137.056-.268.093-.405zm89.856-18.015 63.174-62.943-62.95-62.943c-5.772-5.835-5.723-15.25.112-21.016 5.835-5.78 15.244-5.73 21.023.106l73.398 73.398c5.748 5.785 5.748 15.126 0 20.9l-73.398 73.398c-2.777 2.783-6.532 4.353-10.455 4.37a14.81 14.81 0 0 1 -10.53-4.371c-5.79-5.748-5.86-15.088-.15-20.9h-.224zm-200.164-52.488c-5.748-5.785-5.748-15.126 0-20.9l73.398-73.398c5.492-6.078 14.864-6.557 20.942-1.065 6.084 5.486 6.557 14.858 1.07 20.942a17.88 17.88 0 0 1 -1.027 1.034l-62.95 62.943 62.95 62.943c5.748 5.785 5.748 15.126 0 20.9-2.8 2.802-6.582 4.378-10.536 4.37-3.973.025-7.796-1.55-10.598-4.37z" fill="#ece5e1"/></g></g><path d="m71.212 21.35c-1.35-1.65-3.03-2.5-5.04-2.5-.87 0-1.68.15-2.43.48-.78.33-1.4.75-1.95 1.3-.54.57-.96 1.23-1.26 1.98-.33.75-.48 1.6-.48 2.46 0 .9.15 1.74.48 2.5.3.75.72 1.4 1.3 1.98.54.57 1.17 1 1.92 1.32a5.98 5.98 0 0 0 2.4.48c1.9 0 3.57-.8 5.07-2.4v6.96l-.6.2c-.9.33-1.74.57-2.52.72s-1.56.2-2.3.2c-1.56 0-3.06-.3-4.47-.9-1.44-.57-2.7-1.4-3.78-2.5-1.1-1.05-1.98-2.3-2.64-3.8-.66-1.47-1-3.06-1-4.8s.33-3.33 1-4.8c.63-1.44 1.5-2.67 2.6-3.75 1.08-1.05 2.34-1.86 3.78-2.46a12.17 12.17 0 0 1 4.53-.87c.9 0 1.77.1 2.67.27.87.2 1.77.5 2.73.9v7.02zm9.18 3.75a6.41 6.41 0 0 0 .5 2.5c.32.76.8 1.4 1.38 1.98s1.26 1 2.04 1.3c.75.33 1.56.48 2.43.48s1.68-.15 2.46-.48c.75-.3 1.44-.72 2.04-1.3.57-.57 1.05-1.23 1.38-1.98s.5-1.6.5-2.5a6.41 6.41 0 0 0 -.5-2.5c-.32-.76-.8-1.4-1.38-1.98-.6-.57-1.3-1-2.04-1.32-.78-.3-1.6-.45-2.46-.45a6.52 6.52 0 0 0 -2.43.45c-.78.33-1.47.75-2.04 1.32s-1.05 1.23-1.38 1.98-.5 1.6-.5 2.5zm-6.15 0c0-1.68.3-3.24.93-4.7.63-1.44 1.47-2.7 2.58-3.78s2.43-1.92 3.96-2.55c1.53-.6 3.2-.9 5.04-.9s3.5.3 5.04.9c1.53.63 2.85 1.47 4 2.55a11.92 11.92 0 0 1 2.58 3.78c.63 1.47.93 3.03.93 4.7s-.3 3.24-.93 4.68c-.63 1.47-1.47 2.73-2.58 3.8-1.14 1.08-2.46 1.92-4 2.52-1.53.63-3.2.93-5.04.93s-3.5-.3-5.04-.93c-1.53-.6-2.85-1.44-3.96-2.52s-1.95-2.34-2.58-3.8c-.63-1.44-.93-3-.93-4.68zm34.65 6.33h1.35c1.02 0 1.92-.15 2.73-.48s1.47-.75 2.04-1.32a6.07 6.07 0 0 0 1.26-2c.27-.75.42-1.6.42-2.52a6.96 6.96 0 0 0 -.45-2.52c-.3-.78-.72-1.44-1.26-2-.57-.57-1.23-1-2.04-1.32s-1.7-.48-2.7-.48h-1.35v12.66zm-5.88-17.64h8.7c1.53 0 2.97.3 4.35.93 1.35.63 2.52 1.44 3.54 2.46 1 1.05 1.8 2.25 2.37 3.6.57 1.38.87 2.82.87 4.32 0 1.47-.27 2.9-.84 4.26-.57 1.38-1.38 2.58-2.37 3.63-1.02 1.05-2.2 1.86-3.54 2.5s-2.82.93-4.38.93h-8.7v-22.62zm36.45 4.98h-7v3.78h6.6v4.98h-6.6v3.9h7v4.98h-12.87v-22.61h12.87v4.98zm15.24 4.98h11.67l-.15 3.27a11.01 11.01 0 0 1 -.6 2.73c-.42 1.17-1 2.22-1.7 3.12-.72.93-1.56 1.68-2.52 2.28-1 .63-2.04 1.08-3.2 1.4a13.65 13.65 0 0 1 -3.66.48c-1.77 0-3.36-.3-4.8-.87-1.47-.57-2.7-1.38-3.75-2.46-1.05-1.05-1.86-2.3-2.43-3.78s-.87-3.1-.87-4.86.27-3.4.87-4.86c.57-1.44 1.38-2.7 2.43-3.75s2.3-1.86 3.78-2.43 3.12-.87 4.95-.87c2.37 0 4.44.5 6.2 1.53s3.18 2.6 4.23 4.74l-5.58 2.3c-.5-1.23-1.2-2.13-2-2.67-.84-.54-1.8-.8-2.85-.8-.87 0-1.68.15-2.4.48s-1.32.8-1.83 1.4c-.5.63-.93 1.35-1.2 2.22-.3.87-.45 1.83-.45 2.88 0 .96.12 1.86.4 2.67.24.8.6 1.53 1.1 2.13s1.1 1.05 1.86 1.38 1.6.5 2.58.5a6.72 6.72 0 0 0 1.68-.2 4.28 4.28 0 0 0 1.47-.63c.42-.27.78-.66 1.05-1.1s.48-1.02.57-1.68h-4.83v-4.56zm21.27.15h1.1c1.17 0 2.04-.24 2.67-.72s.93-1.17.93-2.07-.3-1.6-.93-2.07-1.5-.72-2.67-.72h-1.1zm12.93 12.5h-7.32l-5.6-8.7v8.7h-5.88v-22.6h9.15c1.26 0 2.37.18 3.3.54.93.4 1.7.9 2.34 1.53.6.63 1.05 1.38 1.38 2.22.3.84.45 1.74.45 2.7 0 1.7-.42 3.12-1.23 4.17-.84 1.08-2.07 1.8-3.7 2.2l7.1 9.27zm14.76-8.4-2.64-7.53-2.64 7.53zm1.56 4.47h-8.4l-1.35 3.93h-6.27l8.6-22.62h6.42l8.6 22.62h-6.27l-1.35-3.93zm10.2-18.7h5.88v22.63h-5.88zm10.62 22.62v-22.59h5.88l10.86 13.83v-13.83h5.85v22.6h-5.85l-10.86-13.83v13.83h-5.88z" fill="#313131" fill-rule="nonzero" transform="matrix(.666667 0 0 .70000035 -2.05931436299 -1.85430092715)"/></svg>